<?xml version="1.0" encoding="iso-8859-1"?>
<!-- Generator: Adobe Illustrator 16.0.0, SVG Export Plug-In . SVG Version: 6.00 Build 0)  -->
<!DOCTYPE svg PUBLIC "-//W3C//DTD SVG 1.1//EN" "http://www.w3.org/Graphics/SVG/1.1/DTD/svg11.dtd">
<svg version="1.1" id="Capa_1" xmlns="http://www.w3.org/2000/svg" xmlns:xlink="http://www.w3.org/1999/xlink" x="0px" y="0px"
	 width="612px" height="612px" viewBox="0 0 612 612" style="enable-background:new 0 0 612 612;" xml:space="preserve">
<g>
	<g>
		<g>
			<path d="M286.354,348.399c5.641,0.02,10.184,4.562,10.222,10.203v14.92c-0.039,5.659-4.582,10.184-10.222,10.202H64.375
				c-5.641,0-10.222-4.543-10.222-10.202v-14.92c0-5.621,4.582-10.184,10.222-10.203H286.354L286.354,348.399z M470.257,348.419
				h87.898c5.487,0,9.934,4.447,9.934,9.991v15.362c0,5.524-4.446,9.991-9.934,9.991h-87.898c-5.486,0-9.934-4.447-9.934-9.991
				V358.41C460.323,352.866,464.751,348.419,470.257,348.419L470.257,348.419z M384.071,348.419c5.486,0,9.972,4.447,9.972,9.991
				v15.362c0,5.524-4.466,9.991-9.972,9.991h-24.853c-5.525,0-9.972-4.447-9.972-9.991V358.41c0-5.525,4.428-9.991,9.972-9.991
				H384.071L384.071,348.419z M456.107,430.716c5.641,0,10.223,4.601,10.223,10.241v14.881c0,5.66-4.582,10.203-10.223,10.203
				H310.418c-5.641,0-10.184-4.543-10.222-10.203v-14.881c0.039-5.641,4.582-10.202,10.222-10.241H456.107L456.107,430.716z
				 M226.562,430.755c5.525,0,9.972,4.446,9.991,9.952v15.42c-0.038,5.486-4.466,9.953-9.991,9.953h-87.784
				c-5.525,0-10.01-4.447-10.01-9.953v-15.42c0-5.486,4.466-9.952,10.01-9.952H226.562L226.562,430.755z M316.366,516.497
				c5.68,0.02,10.184,4.582,10.223,10.223v14.861c-0.039,5.641-4.543,10.241-10.223,10.279H94.367
				c-5.679-0.038-10.222-4.601-10.222-10.279V526.72c0-5.641,4.582-10.203,10.222-10.223H316.366L316.366,516.497z M530.858,516.517
				c5.641,0.038,10.184,4.562,10.222,10.241v14.9c-0.038,5.621-4.581,10.184-10.222,10.184H385.169
				c-5.641,0-10.184-4.562-10.223-10.184v-14.9c0-5.679,4.582-10.241,10.223-10.241H530.858L530.858,516.517z M286.316,355.061
				H64.375c-1.925,0-3.542,1.598-3.542,3.542v14.92c0,1.944,1.617,3.542,3.542,3.542h221.98c1.944,0,3.523-1.598,3.523-3.562v-14.9
				C289.877,356.62,288.337,355.061,286.316,355.061L286.316,355.061z M470.295,355.061c-1.848,0.038-3.311,1.502-3.311,3.33v15.362
				c0,1.829,1.463,3.312,3.311,3.35h87.86c1.771-0.038,3.273-1.521,3.273-3.35v-15.362c0-1.828-1.502-3.291-3.273-3.291
				L470.295,355.061L470.295,355.061z M384.071,355.099h-24.853c-1.81,0-3.312,1.464-3.312,3.292v15.362
				c0,1.867,1.463,3.312,3.312,3.312h24.853c1.81,0,3.312-1.482,3.312-3.312v-15.362
				C387.383,356.562,385.881,355.099,384.071,355.099L384.071,355.099z M456.107,437.435H310.418c-2.002,0-3.542,1.56-3.542,3.542
				v14.881c0,1.964,1.578,3.562,3.542,3.562h145.689c1.964,0,3.542-1.598,3.542-3.562v-14.881
				C459.649,438.994,458.071,437.435,456.107,437.435L456.107,437.435z M226.562,437.454h-87.784c-1.848,0-3.311,1.443-3.311,3.253
				v15.42c0,1.79,1.463,3.292,3.311,3.292h87.803c1.848-0.039,3.311-1.502,3.311-3.312v-15.4
				C229.873,438.936,228.41,437.454,226.562,437.454L226.562,437.454z M316.366,523.196H94.367c-1.964,0-3.542,1.598-3.542,3.562
				v14.843c0,1.982,1.617,3.619,3.542,3.619h221.98c1.963,0,3.542-1.637,3.542-3.619v-14.862
				C319.89,524.794,318.311,523.196,316.366,523.196L316.366,523.196z M530.819,523.235h-145.65c-1.926,0-3.542,1.559-3.542,3.542
				v14.899c0,1.926,1.616,3.543,3.58,3.543h145.651c1.963,0,3.542-1.637,3.542-3.543v-14.899
				C534.4,524.833,532.821,523.235,530.819,523.235L530.819,523.235z"/>
			<path d="M338.273,60.14c0.828,0,1.502,0.058,1.887,0.096c81.181,0.943,147.923,61.371,158.896,139.741
				C562.448,206.387,612,259.847,612,324.991c0,66.492-51.631,120.778-117.045,125.245v0.462h-15.266v-9.722
				c0-13.032-10.568-23.562-23.543-23.562H310.38c-12.898,0-23.505,10.568-23.544,23.562v9.76h-36.884v-10.029
				c-0.077-12.821-10.492-23.274-23.351-23.293h-87.86c-12.86,0.019-23.313,10.511-23.313,23.332v9.952H96.446v-0.347
				C42.563,446.694,0,402.032,0,347.226c0-55.211,43.276-100.239,97.794-103.203c15.381-36.519,47.376-64.24,86.667-73.576
				C206.194,106.303,266.757,60.14,338.273,60.14L338.273,60.14z M64.336,397.065h222.057c12.898-0.038,23.505-10.568,23.505-23.543
				v-14.92c0-12.975-10.607-23.562-23.544-23.562H64.336c-12.975,0-23.543,10.626-23.543,23.562v14.92
				C40.792,386.497,51.361,397.065,64.336,397.065L64.336,397.065z M470.257,397.065h87.938
				c12.782-0.038,23.235-10.472,23.235-23.312v-15.362c0-12.878-10.453-23.332-23.274-23.332l-87.976-0.019
				c-12.782,0.058-23.197,10.511-23.197,23.351v15.362C446.982,386.594,457.397,397.027,470.257,397.065L470.257,397.065z
				 M359.219,397.065h24.853c12.859,0,23.274-10.414,23.312-23.312v-15.4c-0.038-12.859-10.453-23.312-23.312-23.312h-24.853
				c-12.859,0-23.312,10.473-23.312,23.351v15.362C335.906,386.612,346.359,397.065,359.219,397.065L359.219,397.065z
				 M338.273,66.839c-66.819,0-126.073,42.467-147.46,105.725l-1.194,3.523l-3.581,0.828c-36.73,8.759-67.455,34.806-82.124,69.649
				l-1.656,3.85l-4.081,0.231c-51.322,2.83-91.479,45.22-91.479,96.581c0,50.648,39.637,93.039,90.17,96.466l4.928,0.346h6.95
				v-3.311c0-16.518,13.417-29.993,29.973-30.031h87.899c16.479,0.038,29.935,13.495,29.973,29.954v3.369h23.621v-3.062
				c0-16.651,13.571-30.204,30.185-30.242h145.767c16.652,0,30.224,13.552,30.224,30.242v3.062h1.887v-0.02l6.199-0.404
				c62.18-4.235,110.884-56.386,110.884-118.604c0-61.353-46.028-112.232-106.977-118.373l-5.217-0.539l-0.712-5.198
				c-10.568-75.501-76.06-133.138-152.351-133.985h-0.27l-0.481-0.02C339.063,66.858,338.736,66.839,338.273,66.839L338.273,66.839z
				 M64.336,403.746c-16.652,0-30.185-13.553-30.185-30.205v-14.919c0-16.613,13.533-30.204,30.146-30.243h222.057
				c16.613,0.039,30.186,13.591,30.224,30.224v14.938c-0.038,16.652-13.572,30.166-30.185,30.205H64.336L64.336,403.746z
				 M470.257,403.746c-16.498-0.02-29.974-13.476-29.974-29.993v-15.362c0-16.459,13.418-29.935,29.896-30.031l87.976,0.039
				c16.498,0,29.974,13.456,29.974,30.012v15.362c0,16.498-13.418,29.974-29.935,29.992h-87.938V403.746L470.257,403.746
				L470.257,403.746z M359.219,403.746c-16.498,0-29.974-13.438-29.974-29.993v-15.362c0-16.536,13.456-30.012,29.974-30.012h24.853
				c16.498,0,29.974,13.418,30.012,29.954v15.42c-0.038,16.536-13.494,29.993-30.012,29.993H359.219L359.219,403.746z"/>
		</g>
	</g>
</g>
<g>
</g>
<g>
</g>
<g>
</g>
<g>
</g>
<g>
</g>
<g>
</g>
<g>
</g>
<g>
</g>
<g>
</g>
<g>
</g>
<g>
</g>
<g>
</g>
<g>
</g>
<g>
</g>
<g>
</g>
</svg>
