<?xml version="1.0" encoding="UTF-8"?>
<svg xmlns="http://www.w3.org/2000/svg" xmlns:xlink="http://www.w3.org/1999/xlink" width="300pt" height="300pt" viewBox="0 0 300 300" version="1.1">
<g id="surface1">
<path style="fill:none;stroke-width:2;stroke-linecap:butt;stroke-linejoin:miter;stroke:rgb(29.803922%,31.764706%,34.901961%);stroke-opacity:1;stroke-miterlimit:10;" d="M 40.3 25.6 L 23.3 25.6 C 23.2 25.6 23.1 25.5 23.1 25.4 L 23.1 11.6 C 23.1 11.5 23.2 11.4 23.3 11.4 L 40.3 11.4 C 40.4 11.4 40.5 11.5 40.5 11.6 L 40.5 25.4 C 40.6 25.5 40.4 25.6 40.3 25.6 Z M 40.3 25.6 " transform="matrix(4.6875,0,0,4.6875,0,0)"/>
<path style="fill:none;stroke-width:2;stroke-linecap:butt;stroke-linejoin:miter;stroke:rgb(29.803922%,31.764706%,34.901961%);stroke-opacity:1;stroke-miterlimit:10;" d="M 35.1 18.7 L 28.6 22.4 C 28.5 22.5 28.3 22.4 28.3 22.2 L 28.3 14.7 C 28.3 14.6 28.4 14.5 28.6 14.5 L 35.1 18.2 C 35.3 18.4 35.3 18.6 35.1 18.7 L 28.6 22.4 C 28.5 22.5 28.3 22.4 28.3 22.2 L 28.3 14.7 C 28.3 14.6 28.4 14.5 28.6 14.5 L 35.1 18.2 C 35.3 18.4 35.3 18.6 35.1 18.7 Z M 35.1 18.7 " transform="matrix(4.6875,0,0,4.6875,0,0)"/>
<path style="fill:none;stroke-width:2;stroke-linecap:butt;stroke-linejoin:miter;stroke:rgb(29.803922%,31.764706%,34.901961%);stroke-opacity:1;stroke-miterlimit:10;" d="M 42.9 22.1 L 54.7 22.1 C 54.8 22.1 54.9 22.2 54.9 22.3 L 54.9 36.8 C 54.9 36.9 54.8 37 54.7 37 L 51.4 37 " transform="matrix(4.6875,0,0,4.6875,0,0)"/>
<path style="fill:none;stroke-width:2;stroke-linecap:butt;stroke-linejoin:miter;stroke:rgb(29.803922%,31.764706%,34.901961%);stroke-opacity:1;stroke-miterlimit:10;" d="M 43.2 32.2 L 45.1 30.2 L 48.4 33.1 L 54.9 33.1 " transform="matrix(4.6875,0,0,4.6875,0,0)"/>
<path style="fill:none;stroke-width:2;stroke-linecap:butt;stroke-linejoin:miter;stroke:rgb(29.803922%,31.764706%,34.901961%);stroke-opacity:1;stroke-miterlimit:10;" d="M 48.1 26.3 L 51.3 26.3 " transform="matrix(4.6875,0,0,4.6875,0,0)"/>
<path style="fill:none;stroke-width:2;stroke-linecap:butt;stroke-linejoin:miter;stroke:rgb(29.803922%,31.764706%,34.901961%);stroke-opacity:1;stroke-miterlimit:10;" d="M 11.9 38.1 L 9.3 38.1 C 9.2 38.1 9.1 38 9.1 37.9 L 9.1 23.3 C 9.1 23.2 9.2 23.1 9.3 23.1 L 21.1 23.1 " transform="matrix(4.6875,0,0,4.6875,0,0)"/>
<path style="fill:none;stroke-width:2;stroke-linecap:butt;stroke-linejoin:miter;stroke:rgb(29.803922%,31.764706%,34.901961%);stroke-opacity:1;stroke-miterlimit:10;" d="M 12.1 33.2 L 15.1 33.2 L 15.1 28 L 21.4 28 L 21.4 33.2 L 18.3 33.2 " transform="matrix(4.6875,0,0,4.6875,0,0)"/>
<path style="fill:none;stroke-width:2;stroke-linecap:butt;stroke-linejoin:miter;stroke:rgb(29.803922%,31.764706%,34.901961%);stroke-opacity:1;stroke-miterlimit:10;" d="M 36.5 34.4 C 35.4 32.7 33.4 31.5 31.2 31.5 C 30 31.5 28.9 31.8 28 32.4 " transform="matrix(4.6875,0,0,4.6875,0,0)"/>
<path style="fill:none;stroke-width:2;stroke-linecap:butt;stroke-linejoin:miter;stroke:rgb(29.803922%,31.764706%,34.901961%);stroke-opacity:1;stroke-miterlimit:10;" d="M 23.1 33.7 C 24.6 33.7 25.8 34.9 25.8 36.4 " transform="matrix(4.6875,0,0,4.6875,0,0)"/>
<path style="fill:none;stroke-width:2;stroke-linecap:butt;stroke-linejoin:miter;stroke:rgb(29.803922%,31.764706%,34.901961%);stroke-opacity:1;stroke-miterlimit:10;" d="M 8.9 41.9 L 13.2 41.9 C 13.2 39.8 14.9 38 17.1 38 L 18 38 C 18.4 35.5 20.5 33.6 23.1 33.6 C 23.6 33.6 24 33.7 24.4 33.8 C 25.4 30.7 28.2 28.5 31.6 28.5 C 35.4 28.5 38.5 31.3 39 34.9 C 39.9 34.4 40.9 34 42 34 C 44.5 34 46.6 35.7 47.3 38 L 47.5 38 C 49.6 38 51.4 39.7 51.4 41.9 L 55.2 41.9 " transform="matrix(4.6875,0,0,4.6875,0,0)"/>
<path style="fill:none;stroke-width:2;stroke-linecap:butt;stroke-linejoin:miter;stroke:rgb(29.803922%,31.764706%,34.901961%);stroke-opacity:1;stroke-miterlimit:10;" d="M 26.4 43.5 L 30.9 48 L 39.9 39 " transform="matrix(4.6875,0,0,4.6875,0,0)"/>
<path style="fill:none;stroke-width:2;stroke-linecap:butt;stroke-linejoin:miter;stroke:rgb(29.803922%,31.764706%,34.901961%);stroke-opacity:1;stroke-miterlimit:10;" d="M 37.3 46 C 37.3 49.7 34.3 52.6 30.7 52.6 C 27 52.6 24.1 49.6 24.1 46 C 24.1 42.3 27.1 39.4 30.7 39.4 C 31.9 39.4 33 39.7 33.9 40.2 " transform="matrix(4.6875,0,0,4.6875,0,0)"/>
</g>
</svg>
