<?xml version='1.0' encoding='utf-8'?>
<!DOCTYPE svg PUBLIC '-//W3C//DTD SVG 1.1//EN' 'http://www.w3.org/Graphics/SVG/1.1/DTD/svg11.dtd'>
<svg version="1.1" xmlns="http://www.w3.org/2000/svg" viewBox="0 0 512 512" xmlns:xlink="http://www.w3.org/1999/xlink" enable-background="new 0 0 512 512">
  <g>
    <g>
      <g>
        <g>
          <path d="m413.4,406h-298.1c-57.4,0-104.3-47.5-104.3-105.6 0-57 44.8-104.6 101.1-105.6 18.8-52.8 67.8-88.7 123-88.7 27.1,0 52.1,8.5 74,24.3 13.6-8.5 29.2-12.7 44.8-12.7 48,0 86.5,39.1 86.5,87.7 0,8.5-1,18-4.2,25.4 37.5,10.6 64.6,45.4 64.6,85.6 0.2,49.5-39.4,89.6-87.4,89.6zm-298.1-191.2c-45.9,0-83.4,38-83.4,84.5s37.5,84.5 83.4,84.5h298.2c36.5,0 66.7-30.6 66.7-67.6 0-34.9-26.1-63.4-59.4-67.6-6.1-1.1-12-6.7-8.3-14.8 4.2-9.5 7.3-19 7.3-29.6 0-35.9-29.2-66.5-65.7-66.5-14.6,0-27.1,4.2-38.6,13.7-4.2,3.2-9.4,3.2-12.5,0-19.8-15.8-42.7-24.3-67.8-24.3-48,0-91.7,32.7-104.3,80.3-1,4.2-4.8,7.4-15.6,7.4z"/>
        </g>
        <g>
          <g>
            <path d="m136.1,355.3c-20.9,0-37.5-16.9-37.5-38s16.7-38 37.5-38 37.5,16.9 37.5,38c0,21.1-16.6,38-37.5,38zm0-54.9c-9.4,0-16.7,7.4-16.7,16.9s7.3,16.9 16.7,16.9 16.7-7.4 16.7-16.9-7.3-16.9-16.7-16.9z"/>
          </g>
          <g>
            <path d="m256,355.3c-20.9,0-37.5-16.9-37.5-38s16.7-38 37.5-38 37.5,16.9 37.5,38c0,21.1-16.6,38-37.5,38zm0-54.9c-9.4,0-16.7,7.4-16.7,16.9s7.3,16.9 16.7,16.9c9.4,0 16.7-7.4 16.7-16.9s-7.3-16.9-16.7-16.9z"/>
          </g>
          <g>
            <path d="m375.9,355.3c-20.9,0-37.5-16.9-37.5-38s16.7-38 37.5-38 37.5,16.9 37.5,38c0,21.1-16.7,38-37.5,38zm0-54.9c-9.4,0-16.7,7.4-16.7,16.9s7.3,16.9 16.7,16.9 16.7-7.4 16.7-16.9-7.3-16.9-16.7-16.9z"/>
          </g>
        </g>
      </g>
    </g>
  </g>
</svg>
