<?xml version="1.0" standalone="no"?>
<!DOCTYPE svg PUBLIC "-//W3C//DTD SVG 1.0//EN" "http://www.w3.org/TR/2001/REC-SVG-20010904/DTD/svg10.dtd">
<svg xmlns="http://www.w3.org/2000/svg" xmlns:xlink="http://www.w3.org/1999/xlink" id="body_1" width="1331" height="998">

<g transform="matrix(1.299805 0 0 1.299479 0 0)">
	<g transform="matrix(12 0 0 12 128 0)">
	</g>
    <path transform="matrix(12 0 0 12 128 0)"  d="M40.3 25.6L23.3 25.6C 23.2 25.6 23.1 25.5 23.1 25.4L23.1 25.4L23.1 11.6C 23.1 11.5 23.2 11.4 23.3 11.4L23.3 11.4L40.3 11.4C 40.4 11.4 40.5 11.5 40.5 11.6L40.5 11.6L40.5 25.4C 40.6 25.5 40.4 25.6 40.3 25.6z" stroke="#4C5159" stroke-width="2" fill="none" />
	<g transform="matrix(12 0 0 12 128 0)">
	</g>
    <path transform="matrix(12 0 0 12 128 0)"  d="M35.1 18.7L28.6 22.4C 28.5 22.5 28.3 22.4 28.3 22.2L28.3 22.2L28.3 14.7C 28.3 14.6 28.4 14.5 28.6 14.5L28.6 14.5L35.1 18.2C 35.3 18.4 35.3 18.6 35.1 18.7L35.1 18.7L28.6 22.4C 28.5 22.5 28.3 22.4 28.3 22.2L28.3 22.2L28.3 14.7C 28.3 14.6 28.4 14.5 28.6 14.5L28.6 14.5L35.1 18.2C 35.3 18.4 35.3 18.6 35.1 18.7z" stroke="#4C5159" stroke-width="2" fill="none" />
	<g transform="matrix(12 0 0 12 128 0)">
	</g>
    <path transform="matrix(12 0 0 12 128 0)"  d="M42.9 22.1L54.7 22.1C 54.8 22.1 54.9 22.2 54.9 22.3L54.9 22.3L54.9 36.8C 54.9 36.9 54.8 37 54.7 37L54.7 37L51.4 37" stroke="#4C5159" stroke-width="2" fill="none" />
	<g transform="matrix(12 0 0 12 128 0)">
	</g>
    <path transform="matrix(12 0 0 12 128 0)"  d="M43.2 32.2L45.1 30.2L48.4 33.1L54.9 33.1" stroke="#4C5159" stroke-width="2" fill="none" />
	<g transform="matrix(12 0 0 12 128 0)">
	</g>
    <path transform="matrix(12 0 0 12 128 0)"  d="M48.1 26.3L51.3 26.3" stroke="#4C5159" stroke-width="2" fill="none" />
	<g transform="matrix(12 0 0 12 128 0)">
	</g>
    <path transform="matrix(12 0 0 12 128 0)"  d="M11.9 38.1L9.3 38.1C 9.2 38.1 9.1 38 9.1 37.9L9.1 37.9L9.1 23.3C 9.1 23.2 9.200001 23.1 9.3 23.1L9.3 23.1L21.1 23.1" stroke="#4C5159" stroke-width="2" fill="none" />
	<g transform="matrix(12 0 0 12 128 0)">
	</g>
    <path transform="matrix(12 0 0 12 128 0)"  d="M12.1 33.2L15.1 33.2L15.1 28L21.4 28L21.4 33.2L18.3 33.2" stroke="#4C5159" stroke-width="2" fill="none" />
	<g transform="matrix(12 0 0 12 128 0)">
	</g>
    <path transform="matrix(12 0 0 12 128 0)"  d="M36.5 34.4C 35.4 32.7 33.4 31.5 31.2 31.5C 30 31.5 28.9 31.8 28 32.4" stroke="#4C5159" stroke-width="2" fill="none" />
	<g transform="matrix(12 0 0 12 128 0)">
	</g>
    <path transform="matrix(12 0 0 12 128 0)"  d="M23.1 33.7C 24.6 33.7 25.8 34.9 25.8 36.4" stroke="#4C5159" stroke-width="2" fill="none" />
	<g transform="matrix(12 0 0 12 128 0)">
	</g>
    <path transform="matrix(12 0 0 12 128 0)"  d="M8.9 41.9L13.2 41.9C 13.2 39.8 14.9 38 17.1 38L17.1 38L18 38C 18.4 35.5 20.5 33.6 23.1 33.6C 23.6 33.6 24 33.7 24.4 33.8C 25.4 30.7 28.2 28.5 31.6 28.5C 35.4 28.5 38.5 31.3 39 34.9C 39.9 34.4 40.9 34 42 34C 44.5 34 46.6 35.7 47.3 38L47.3 38L47.5 38C 49.6 38 51.4 39.7 51.4 41.9L51.4 41.9L55.2 41.9" stroke="#4C5159" stroke-width="2" fill="none" />
	<g transform="matrix(12 0 0 12 128 0)">
	</g>
    <path transform="matrix(12 0 0 12 128 0)"  d="M26.4 43.5L30.9 48L39.9 39" stroke="#4C5159" stroke-width="2" fill="none" />
	<g transform="matrix(12 0 0 12 128 0)">
	</g>
    <path transform="matrix(12 0 0 12 128 0)"  d="M37.3 46C 37.3 49.7 34.3 52.6 30.7 52.6C 27 52.6 24.1 49.6 24.1 46C 24.1 42.3 27.1 39.4 30.7 39.4C 31.9 39.4 33 39.7 33.9 40.2" stroke="#4C5159" stroke-width="2" fill="none" />
</g>
</svg>