<?xml version="1.0" encoding="UTF-8"?>
<svg xmlns="http://www.w3.org/2000/svg" xmlns:xlink="http://www.w3.org/1999/xlink" width="290pt" height="290pt" viewBox="0 0 290 290" version="1.1">
<g id="surface1">
<path style=" stroke:none;fill-rule:nonzero;fill:rgb(0%,0%,0%);fill-opacity:1;" d="M 71.910156 78.4375 L 71.695312 78.4375 C 61.195312 78.4375 51.128906 82.628906 43.734375 90.082031 C 36.335938 97.535156 32.222656 107.632812 32.304688 118.128906 C 32.316406 120.152344 33.960938 121.785156 35.984375 121.785156 L 36.011719 121.785156 C 38.042969 121.769531 39.679688 120.109375 39.667969 118.078125 C 39.601562 109.539062 42.945312 101.332031 48.957031 95.269531 C 54.96875 89.210938 63.152344 85.800781 71.691406 85.800781 L 71.90625 85.800781 C 73.941406 85.800781 75.589844 84.15625 75.589844 82.121094 C 75.59375 80.085938 73.945312 78.4375 71.910156 78.4375 Z M 71.910156 78.4375 "/>
<path style=" stroke:none;fill-rule:nonzero;fill:rgb(0%,0%,0%);fill-opacity:1;" d="M 117.902344 154.402344 L 171.578125 154.402344 C 175.390625 154.402344 178.480469 157.492188 178.480469 161.304688 L 178.480469 214.980469 C 178.480469 218.792969 175.390625 221.882812 171.578125 221.882812 L 117.902344 221.882812 C 114.089844 221.882812 111 218.792969 111 214.980469 L 111 161.304688 C 111 157.492188 114.089844 154.398438 117.902344 154.398438 Z M 117.902344 154.402344 "/>
<path style=" stroke:none;fill-rule:nonzero;fill:rgb(0%,0%,0%);fill-opacity:1;" d="M 218.265625 176.03125 C 250.5 176.03125 276.917969 150.121094 277.152344 118.269531 C 277.269531 102.757812 271.191406 87.839844 260.261719 76.828125 C 249.335938 65.816406 234.464844 59.625 218.949219 59.625 L 218.738281 59.625 C 212.039062 59.617188 205.945312 55.738281 203.105469 49.667969 C 192.601562 27.054688 169.933594 12.589844 145 12.589844 C 120.066406 12.589844 97.398438 27.054688 86.894531 49.667969 C 84.042969 55.746094 77.9375 59.628906 71.222656 59.625 L 71.050781 59.625 C 55.535156 59.625 40.664062 65.816406 29.738281 76.828125 C 18.808594 87.839844 12.730469 102.757812 12.847656 118.269531 C 13.085938 150.121094 39.5 176.03125 71.734375 176.03125 L 94.199219 176.03125 L 94.199219 186.09375 L 57.308594 186.09375 C 55.519531 181.121094 50.414062 178.15625 45.207031 179.0625 C 40 179.972656 36.199219 184.492188 36.199219 189.777344 C 36.199219 195.0625 40 199.582031 45.207031 200.488281 C 50.414062 201.398438 55.519531 198.429688 57.308594 193.457031 L 94.199219 193.457031 L 94.199219 201.109375 L 71.257812 201.109375 C 66.265625 201.117188 62.21875 205.164062 62.210938 210.15625 L 62.210938 253.695312 C 57.238281 255.484375 54.273438 260.589844 55.179688 265.796875 C 56.089844 271.003906 60.609375 274.800781 65.894531 274.800781 C 71.179688 274.800781 75.699219 271.003906 76.605469 265.796875 C 77.515625 260.589844 74.546875 255.484375 69.574219 253.695312 L 69.574219 210.15625 C 69.578125 209.226562 70.328125 208.476562 71.257812 208.472656 L 94.199219 208.472656 L 94.199219 220.851562 C 94.207031 230.695312 102.1875 238.675781 112.03125 238.683594 L 123.710938 238.683594 C 123.699219 238.804688 123.695312 238.925781 123.695312 239.046875 L 123.699219 254.632812 C 118.722656 256.421875 115.753906 261.527344 116.660156 266.734375 C 117.566406 271.941406 122.085938 275.742188 127.371094 275.742188 C 132.65625 275.746094 137.179688 271.945312 138.085938 266.738281 C 138.996094 261.535156 136.03125 256.425781 131.058594 254.636719 L 131.058594 239.046875 C 131.058594 238.925781 131.050781 238.804688 131.039062 238.683594 L 159.09375 238.683594 C 159.082031 238.804688 159.078125 238.925781 159.078125 239.046875 L 159.078125 254.636719 C 154.101562 256.425781 151.136719 261.53125 152.046875 266.738281 C 152.953125 271.945312 157.476562 275.742188 162.761719 275.742188 C 168.046875 275.742188 172.566406 271.941406 173.472656 266.734375 C 174.378906 261.527344 171.410156 256.421875 166.4375 254.632812 L 166.441406 239.046875 C 166.441406 238.925781 166.433594 238.804688 166.421875 238.683594 L 177.449219 238.683594 C 187.292969 238.675781 195.273438 230.695312 195.28125 220.851562 L 195.28125 208.472656 L 214.859375 208.472656 C 215.789062 208.476562 216.542969 209.226562 216.542969 210.15625 L 216.542969 253.695312 C 211.570312 255.484375 208.605469 260.589844 209.511719 265.796875 C 210.421875 271.003906 214.941406 274.800781 220.226562 274.800781 C 225.511719 274.800781 230.03125 271.003906 230.9375 265.796875 C 231.847656 260.589844 228.878906 255.484375 223.90625 253.695312 L 223.90625 210.15625 C 223.902344 205.164062 219.855469 201.117188 214.859375 201.109375 L 195.28125 201.109375 L 195.28125 193.457031 L 228.8125 193.457031 C 230.601562 198.429688 235.707031 201.398438 240.914062 200.488281 C 246.117188 199.582031 249.917969 195.0625 249.917969 189.777344 C 249.917969 184.492188 246.117188 179.972656 240.914062 179.0625 C 235.707031 178.15625 230.601562 181.121094 228.8125 186.09375 L 195.28125 186.09375 L 195.28125 176.03125 Z M 187.917969 220.851562 C 187.914062 226.632812 183.230469 231.316406 177.449219 231.320312 L 112.03125 231.320312 C 106.25 231.316406 101.566406 226.632812 101.5625 220.851562 L 101.5625 155.433594 C 101.566406 149.652344 106.25 144.96875 112.03125 144.964844 L 177.449219 144.964844 C 183.230469 144.96875 187.914062 149.652344 187.917969 155.433594 Z M 194.898438 151.753906 C 193.148438 143.507812 185.875 137.609375 177.449219 137.601562 L 166.441406 137.601562 L 166.4375 111.148438 C 171.410156 109.359375 174.378906 104.253906 173.472656 99.046875 C 172.5625 93.839844 168.042969 90.042969 162.757812 90.042969 C 157.472656 90.042969 152.953125 93.84375 152.046875 99.050781 C 151.136719 104.257812 154.105469 109.363281 159.078125 111.148438 L 159.078125 137.601562 L 131.054688 137.601562 L 131.050781 111.148438 C 136.027344 109.363281 138.996094 104.257812 138.089844 99.050781 C 137.183594 93.84375 132.664062 90.042969 127.378906 90.042969 C 122.09375 90.039062 117.570312 93.839844 116.664062 99.046875 C 115.753906 104.253906 118.71875 109.359375 123.691406 111.148438 L 123.691406 137.601562 L 112.03125 137.601562 C 103.605469 137.609375 96.332031 143.511719 94.582031 151.753906 C 94.558594 151.753906 94.539062 151.753906 94.515625 151.753906 L 86.886719 151.753906 C 85.238281 151.75 83.898438 150.414062 83.898438 148.765625 L 83.898438 131.308594 C 88.871094 129.519531 91.835938 124.414062 90.929688 119.207031 C 90.019531 114 85.5 110.199219 80.214844 110.199219 C 74.929688 110.199219 70.410156 114 69.503906 119.207031 C 68.59375 124.414062 71.5625 129.519531 76.535156 131.308594 L 76.535156 148.765625 C 76.542969 154.476562 81.171875 159.109375 86.886719 159.117188 L 94.199219 159.117188 L 94.199219 168.667969 L 71.734375 168.667969 C 43.53125 168.667969 20.417969 146.035156 20.210938 118.214844 C 20.109375 104.664062 25.417969 91.632812 34.964844 82.015625 C 44.507812 72.398438 57.5 66.988281 71.050781 66.988281 L 71.261719 66.988281 C 80.824219 66.976562 89.519531 61.4375 93.570312 52.773438 C 102.867188 32.757812 122.929688 19.953125 145 19.953125 C 167.066406 19.953125 187.132812 32.757812 196.429688 52.773438 C 200.484375 61.4375 209.183594 66.980469 218.75 66.988281 L 218.949219 66.988281 C 232.5 66.988281 245.492188 72.398438 255.035156 82.015625 C 264.582031 91.632812 269.890625 104.664062 269.789062 118.214844 C 269.582031 146.035156 246.46875 168.667969 218.265625 168.667969 L 195.28125 168.667969 L 195.28125 159.117188 L 199.230469 159.117188 C 204.945312 159.109375 209.578125 154.476562 209.582031 148.765625 L 209.582031 131.308594 C 214.554688 129.519531 217.523438 124.414062 216.613281 119.207031 C 215.707031 114 211.1875 110.199219 205.902344 110.199219 C 200.617188 110.199219 196.097656 114 195.1875 119.207031 C 194.28125 124.414062 197.246094 129.519531 202.21875 131.308594 L 202.21875 148.765625 C 202.21875 150.414062 200.882812 151.75 199.230469 151.753906 Z M 194.898438 151.753906 "/>
</g>
</svg>
