<?xml version="1.0" standalone="no"?>
<!DOCTYPE svg PUBLIC "-//W3C//DTD SVG 20010904//EN"
 "http://www.w3.org/TR/2001/REC-SVG-20010904/DTD/svg10.dtd">
<svg version="1.0" xmlns="http://www.w3.org/2000/svg"
 width="64.000000pt" height="46.000000pt" viewBox="0 0 64.000000 46.000000"
 preserveAspectRatio="xMidYMid meet">

<g transform="translate(0.000000,46.000000) scale(0.100000,-0.100000)"
fill="#000000" stroke="none">
<path d="M365 390 l-39 -40 -21 20 c-41 39 -62 28 -190 -100 -65 -65 -116
-123 -112 -127 4 -4 45 31 92 77 74 73 86 82 100 70 13 -11 21 -11 35 -2 16 9
21 9 29 -5 7 -14 12 -15 24 -4 12 9 21 10 35 2 16 -8 25 -6 44 9 17 14 19 19
8 20 -9 0 -21 -5 -27 -11 -8 -8 -13 -7 -18 1 -9 15 82 110 105 110 9 0 36 -20
60 -45 42 -43 43 -45 19 -45 -14 0 -30 -5 -37 -12 -9 -9 -17 -7 -35 10 -33 31
-57 29 -27 -3 28 -30 57 -40 73 -27 30 25 66 17 106 -22 22 -22 44 -36 48 -33
4 4 -35 50 -87 102 -111 111 -126 116 -185 55z m-71 -38 c15 -18 15 -20 -2
-35 -14 -13 -21 -14 -30 -5 -10 10 -17 10 -32 0 -29 -18 -36 5 -9 34 27 29 50
31 73 6z"/>
<path d="M185 209 c-40 -41 -79 -64 -103 -60 -11 2 -20 -13 -36 -66 -6 -17 -3
-23 8 -23 9 0 16 -7 16 -15 0 -9 -9 -15 -22 -15 -13 0 -30 -5 -38 -11 -29 -20
85 1 216 40 101 30 130 36 132 25 5 -19 22 -18 22 1 0 8 12 18 27 21 24 6 150
-6 213 -21 23 -6 24 -5 8 8 -22 18 -23 37 -2 37 11 0 14 6 8 23 -24 76 -34 84
-54 38 -15 -36 -41 -31 -83 16 -35 40 -52 41 -89 6 -15 -15 -28 -21 -28 -15 0
22 -18 12 -28 -15 l-9 -28 -12 38 c-7 20 -17 37 -21 37 -5 0 -15 -18 -21 -40
-9 -30 -17 -40 -34 -40 -29 0 -45 -19 -45 -52 0 -15 -4 -28 -10 -28 -5 0 -10
8 -10 18 0 10 -7 28 -16 41 -16 22 -15 24 32 72 29 29 42 49 33 49 -8 0 -33
-18 -54 -41z m292 -11 c13 -12 23 -33 23 -47 0 -25 -2 -26 -50 -23 -43 3 -50
7 -50 25 0 18 35 67 49 67 2 0 15 -10 28 -22z m-157 -33 c0 -8 -4 -15 -10 -15
-5 0 -10 7 -10 15 0 8 5 15 10 15 6 0 10 -7 10 -15z m290 0 c0 -8 -4 -15 -10
-15 -5 0 -10 7 -10 15 0 8 5 15 10 15 6 0 10 -7 10 -15z m-230 -20 c0 -8 -4
-15 -10 -15 -5 0 -10 7 -10 15 0 8 5 15 10 15 6 0 10 -7 10 -15z m180 -10 c0
-8 -9 -15 -20 -15 -11 0 -20 7 -20 15 0 8 9 15 20 15 11 0 20 -7 20 -15z
m-408 -12 c26 -23 23 -60 -4 -68 -13 -4 -31 -9 -40 -11 -10 -3 -18 -1 -18 5 0
6 7 11 15 11 17 0 17 5 6 35 -5 11 -4 25 1 33 13 16 18 15 40 -5z m115 -9 c3
-9 0 -20 -8 -25 -21 -13 -29 -11 -29 9 0 33 26 44 37 16z m30 -6 c-3 -8 -6 -5
-6 6 -1 11 2 17 5 13 3 -3 4 -12 1 -19z m-207 -13 c0 -8 -4 -15 -10 -15 -5 0
-10 7 -10 15 0 8 5 15 10 15 6 0 10 -7 10 -15z"/>
<path d="M420 160 c0 -5 5 -10 10 -10 6 0 10 5 10 10 0 6 -4 10 -10 10 -5 0
-10 -4 -10 -10z"/>
<path d="M460 160 c0 -5 5 -10 10 -10 6 0 10 5 10 10 0 6 -4 10 -10 10 -5 0
-10 -4 -10 -10z"/>
<path d="M130 80 c0 -5 5 -10 10 -10 6 0 10 5 10 10 0 6 -4 10 -10 10 -5 0
-10 -4 -10 -10z"/>
</g>
</svg>
